PathFileType	4	(X/Y/Z)	C:\Users\Biomechanik\SynologyDrive\AlexP\Athlete_03\Athlete_3_25_03_31\Deadlift_35kg_01\marker_experimental.trc
DataRate	CameraRate	NumFrames	NumMarkers	Units	OrigDataRate	OrigDataStartFrame	OrigNumFrames
200.000000	200.000000	4	55	mm	200.000000	1545	2060
Frame#	Time	BL			BR			GLAB			RFHD			LFHD			C7			T6			SPINMOL			SPINM2			SPINM3			T12			BELTOL			BELT2			BELT3			SACROL			SACR2			SACR3			LTHOL			LTH2			LTH3			LSHAOL			LSHA2			LSHA3			LHEE			LTOE			LM5			RTHOL			RTH2			RTH3			RSHAOL			RSHA2			RSHA3			RHEE			RTOE			RM5			STRN			XIPH			LACR			LUAOL			LUA2			LUA3			LLAOL			LLA2			LLA3			LWRR			LWRU			RACR			RUAOL			RUA2			RUA3			RLAOL			RLA2			RLA3			RWRR			RWRU			
		X1	Y1	Z1	X2	Y2	Z2	X3	Y3	Z3	X4	Y4	Z4	X5	Y5	Z5	X6	Y6	Z6	X7	Y7	Z7	X8	Y8	Z8	X9	Y9	Z9	X10	Y10	Z10	X11	Y11	Z11	X12	Y12	Z12	X13	Y13	Z13	X14	Y14	Z14	X15	Y15	Z15	X16	Y16	Z16	X17	Y17	Z17	X18	Y18	Z18	X19	Y19	Z19	X20	Y20	Z20	X21	Y21	Z21	X22	Y22	Z22	X23	Y23	Z23	X24	Y24	Z24	X25	Y25	Z25	X26	Y26	Z26	X27	Y27	Z27	X28	Y28	Z28	X29	Y29	Z29	X30	Y30	Z30	X31	Y31	Z31	X32	Y32	Z32	X33	Y33	Z33	X34	Y34	Z34	X35	Y35	Z35	X36	Y36	Z36	X37	Y37	Z37	X38	Y38	Z38	X39	Y39	Z39	X40	Y40	Z40	X41	Y41	Z41	X42	Y42	Z42	X43	Y43	Z43	X44	Y44	Z44	X45	Y45	Z45	X46	Y46	Z46	X47	Y47	Z47	X48	Y48	Z48	X49	Y49	Z49	X50	Y50	Z50	X51	Y51	Z51	X52	Y52	Z52	X53	Y53	Z53	X54	Y54	Z54	X55	Y55	Z55	

1546	7.725000000000001	2232.62890625	222.0149688720705	351.8168945312504	211.4588928222656	224.1807556152344	355.6904602050782	1222.269287109375	906.9109497070314	668.6517333984377	1149.661254882812	947.6667480468751	677.0545043945315	1284.359741210937	969.7363891601564	667.094177246094	1208.334106445312	1023.341125488281	413.0072326660159	1212.637329101562	964.9228515625001	245.611755371094	1234.618896484375	949.7402343750001	216.6189727783205	1185.786254882812	946.5684814453126	206.5287933349612	1222.89013671875	912.5558471679689	162.9634399414065	1222.3310546875	874.2148437500001	121.7737808227541	1237.079833984375	875.9422607421876	84.69240570068382	1186.66259765625	871.2284545898439	82.81499481201193	1217.72607421875	836.3622436523439	35.47798919677756	1248.593017578125	741.4811401367189	-60.80450439453102	1197.350219726562	738.1004638671876	-58.06649017333962	1224.757080078125	685.3768920898439	-87.47155761718727	1435.047119140625	489.9305725097657	170.5373840332034	1411.738403320312	417.8778381347657	189.9552917480471	1427.2919921875	455.3772888183595	220.2866668701174	1431.775634765625	281.6442260742189	276.7379455566409	1417.41650390625	243.2837829589845	208.1781921386721	1418.8623046875	225.4584960937501	255.4043121337893	1306.97802734375	70.0990524291993	107.9884490966799	1319.4453125	45.06206893920906	322.1563110351565	1421.551391601562	30.35363006591806	272.2669677734378	1017.113525390625	486.5829467773438	155.2365722656252	997.8255004882812	508.1323547363282	230.1504364013674	1018.543029785156	465.3294067382813	213.8873291015627	1006.220092773438	309.3983154296876	272.4327087402345	1013.009643554688	231.3845825195313	278.6100158691408	1019.097839355469	258.9722900390626	237.9542541503908	1128.57080078125	64.09360504150398	115.6102600097658	1102.07373046875	46.23945236206061	325.1217346191409	1004.418334960938	40.29945373535163	267.7802734375002	1207.029052734375	833.0402832031251	462.2969360351565	1214.309204101562	724.2963867187501	367.7578430175784	1374.623779296875	905.4801635742189	450.2670593261721	1464.78173828125	759.9471435546876	425.6934814453128	1492.307006835938	702.5708618164064	409.7544250488284	1449.854248046875	697.9768066406251	437.4985046386722	1504.995239257812	496.1534423828126	390.9576110839847	1515.1787109375	443.0857543945314	333.2936706542972	1505.537109375	435.9762268066407	381.5470275878909	1502.706665039062	328.5672912597657	386.6307373046878	1427.881103515625	324.4361572265626	361.3947448730472	1048.712890625	902.9149780273439	444.4271240234377	966.0993041992186	763.4102172851564	410.7609863281252	972.9312133789061	699.8889770507814	420.1647949218752	932.0459594726561	710.7277221679689	389.8442687988283	931.5411987304686	487.0314941406251	372.2088317871095	937.0164184570311	421.2731933593751	416.7574157714845	930.5798339843749	424.2686767578126	367.5527954101564	936.0677490234374	335.0713195800782	391.6177673339845	1008.231811523437	315.8690795898438	351.3612670898439	
1547	7.73	2232.675048828125	222.0297088623048	351.1676940917973	211.5061340332031	224.1936187744141	356.1293334960938	1222.99267578125	906.8460083007814	668.594421386719	1150.226440429687	947.2944335937501	677.174743652344	1284.803955078125	969.9382934570314	666.9182128906252	1208.374755859375	1023.274108886719	413.0193786621096	1212.67626953125	964.9214477539064	245.6027069091799	1234.664794921875	949.7288818359376	216.5998687744143	1185.78369140625	946.5718994140626	206.5280456542971	1222.932250976562	912.5601806640626	162.9405975341799	1222.369384765625	874.2054443359376	121.7290191650393	1237.126220703125	875.9273071289064	84.62321472167991	1186.687133789062	871.2242431640626	82.77507781982443	1217.706298828125	836.3532714843751	35.47852706909202	1248.59716796875	741.4540405273439	-60.86734771728493	1197.341064453125	738.0726318359376	-58.09315490722634	1224.745971679688	685.3517456054689	-87.52906799316384	1435.111572265625	489.9305114746095	170.4250335693362	1411.801391601562	417.885467529297	189.866638183594	1427.3720703125	455.381805419922	220.1950988769534	1431.848266601562	281.6329040527345	276.6795349121097	1417.467041015625	243.2667236328126	208.1282196044924	1418.911865234375	225.4191284179688	255.373718261719	1306.980346679688	70.09721374511727	107.9861145019534	1319.449096679688	45.06209945678719	322.1571044921877	1421.557861328125	30.34363937377939	272.2688903808597	1017.135803222656	486.5889282226563	155.2325592041018	997.853271484375	508.1408386230469	230.1496734619142	1018.585815429688	465.3410034179688	213.8820648193361	1006.259643554688	309.4248962402344	272.4217834472658	1013.018615722656	231.3865203857422	278.591278076172	1019.135803222656	258.9776000976563	237.9416198730471	1128.561645507812	64.08605194091804	115.602966308594	1102.059326171875	46.22706985473639	325.138366699219	1004.423583984375	40.2991790771485	267.7781677246095	1207.093994140625	832.9693603515626	462.2648010253909	1214.295043945312	724.2650146484376	367.6729736328127	1374.663330078125	905.4130859375001	450.2734375000002	1464.815795898438	759.8795166015626	425.7273559570315	1492.354125976562	702.4902343750001	409.8040161132815	1449.893676757812	697.9198608398439	437.4965515136722	1505.05859375	496.0946350097657	390.9241333007815	1515.262084960938	443.0603332519532	333.2378845214847	1505.569946289062	435.9235839843751	381.4783020019534	1502.776123046875	328.5296936035157	386.4734802246097	1427.954345703125	324.4005126953126	361.2202148437503	1048.749267578125	902.8416748046876	444.4548950195314	966.0941772460936	763.3499755859376	410.693328857422	972.9036254882811	699.8151855468751	420.0975952148439	932.0989379882811	710.6196289062501	389.7210693359377	931.6248168945311	486.9976501464844	372.1745605468752	937.0826416015624	421.2561340332032	416.7366333007814	930.6522216796874	424.2362976074219	367.5302734375002	936.1608886718749	335.0351257324219	391.6119079589845	1008.301574707031	315.8278198242188	351.3769836425783	
1548	7.735	2232.72607421875	222.0502319335939	350.5149841308598	211.5544433593749	224.2058258056641	356.5743713378907	1223.699096679687	906.7778930664064	668.5439453125002	1150.783081054687	946.9305419921876	677.2976684570315	1285.241088867187	970.1250610351564	666.7525634765627	1208.418701171875	1023.205871582031	413.0388488769534	1212.712890625	964.9217529296876	245.6026763916018	1234.708984375	949.7202758789064	216.587844848633	1185.783447265625	946.5757446289064	206.5337677001955	1222.972045898438	912.5675659179689	162.9230194091799	1222.405151367188	874.1994628906251	121.6893692016604	1237.169677734375	875.9178466796876	84.5610046386721	1186.708984375	871.2229614257814	82.74045562744162	1217.676391601562	836.3448486328126	35.491035461426	1248.596313476562	741.4334716796876	-60.92724990844704	1197.325439453125	738.0510253906251	-58.12085723876931	1224.728881835938	685.3333740234376	-87.58473968505837	1435.174438476562	489.9332580566407	170.3072052001956	1411.860229492188	417.8895263671876	189.7762298583987	1427.451538085938	455.3868103027345	220.0982208251956	1431.919799804688	281.6225585937501	276.6188964843753	1417.518432617188	243.2495574951173	208.0759582519534	1418.956909179688	225.3841400146485	255.3386383056643	1306.982055664062	70.09558105468759	107.9840927124026	1319.453002929688	45.06222534179695	322.1575927734377	1421.56396484375	30.33613204956064	272.2690734863284	1017.153625488281	486.5992126464844	155.2281494140627	997.8770141601562	508.1529846191407	230.1497039794924	1018.621948242188	465.3563537597657	213.8767700195314	1006.296813964844	309.4516296386719	272.4098510742189	1013.024963378906	231.3914031982422	278.5719299316408	1019.17138671875	258.9848937988282	237.9275360107424	1128.552734375	64.07942199707038	115.596130371094	1102.040283203125	46.21492004394538	325.1566162109377	1004.428894042969	40.29945755004889	267.775604248047	1207.1630859375	832.8965454101564	462.237243652344	1214.292724609375	724.2333374023439	367.5916137695315	1374.706176757812	905.3444824218751	450.2857360839846	1464.849853515625	759.8088989257814	425.7687988281253	1492.395141601562	702.4060058593751	409.8607482910159	1449.931274414062	697.8591308593751	437.5016174316409	1505.117309570312	496.0339355468751	390.8988037109378	1515.34228515625	443.0367431640626	333.1865539550784	1505.601318359375	435.8704528808595	381.4167480468753	1502.844604492188	328.4939575195314	386.3194274902347	1428.026611328125	324.363739013672	361.0491943359378	1048.793701171875	902.7650146484376	444.4891052246095	966.0967407226561	763.2896118164064	410.6325988769533	972.8854980468749	699.7421264648439	420.040008544922	932.1669311523436	710.5053100585939	389.6030578613283	931.7163696289061	486.9643859863282	372.1580505371095	937.1632690429686	421.2373657226563	416.7310485839845	930.7307739257811	424.2052917480469	367.5240173339845	936.2580566406249	334.9983215332032	391.615447998047	1008.373718261719	315.7852478027344	351.3981018066408	
1549	7.74	2232.781494140625	222.0756072998048	349.8596496582035	211.6038360595703	224.2167205810547	357.0242919921876	1224.388427734375	906.7061157226564	668.4993286132815	1151.331420898437	946.5739746093751	677.4224243164065	1285.671630859375	970.2962646484376	666.5963134765627	1208.46630859375	1023.136169433594	413.0649108886721	1212.748413085938	964.9231567382814	245.6108551025393	1234.752197265625	949.7136840820314	216.5819091796877	1185.786499023438	946.5792846679689	206.545349121094	1223.010375976562	912.5770874023439	162.9096984863284	1222.43896484375	874.1965332031251	121.6540908813479	1237.209838867188	875.9133300781251	84.50606536865257	1186.72900390625	871.2237548828126	82.71054840087912	1217.638061523438	836.3362426757814	35.51409149169944	1248.590576171875	741.4185180664064	-60.9840393066404	1197.304321289062	738.0349731445314	-58.15009689331033	1224.70654296875	685.3206176757814	-87.63824462890602	1435.235961914062	489.9381713867189	170.1855621337893	1411.915405273438	417.8897399902345	189.6848449707034	1427.52978515625	455.3921813964845	219.9972839355471	1431.989990234375	281.6137695312501	276.5564880371097	1417.5693359375	243.2329559326173	208.0218811035159	1418.996948242188	225.3537597656251	255.2995147705081	1306.9833984375	70.09423828125009	107.9822921752932	1319.457275390625	45.06249618530281	322.1578369140627	1421.569580078125	30.33323478698739	272.2654418945315	1017.166931152344	486.6133728027344	155.223342895508	997.8965454101562	508.1686401367188	230.1502685546877	1018.65087890625	465.3751831054688	213.8715515136721	1006.331115722656	309.4783325195313	272.3969116210939	1013.028259277344	231.3991394042969	278.5519104003908	1019.204162597656	258.9943847656251	237.9120788574221	1128.5439453125	64.07376861572273	115.5897598266604	1102.01708984375	46.20326614379889	325.1760864257815	1004.434448242188	40.30021286010749	267.7722778320314	1207.236938476562	832.8223266601564	462.2140197753909	1214.302856445312	724.2015380859376	367.5140075683596	1374.752685546875	905.2747802734376	450.3033752441409	1464.885009765625	759.7362060546876	425.8158874511722	1492.432861328125	702.3214721679689	409.9216613769534	1449.96728515625	697.7938232421876	437.512878417969	1505.173095703125	495.972625732422	390.8791809082034	1515.41796875	443.0154418945314	333.1370849609378	1505.631713867188	435.8174133300782	381.3603210449222	1502.911010742188	328.4602355957032	386.1679687500003	1428.097778320312	324.3262329101564	360.881042480469	1048.849365234375	902.6845703125001	444.5287170410158	966.1083374023436	763.2303466796876	410.5826416015627	972.8787841796874	699.6714477539064	419.9960327148439	932.2495117187499	710.3880615234376	389.4958801269533	931.8153686523436	486.9319152832032	372.1611633300783	937.2579345703124	421.2166137695313	416.7417297363283	930.8149414062499	424.1756896972657	367.5355224609377	936.3582153320311	334.9613342285157	391.6298217773439	1008.448120117187	315.7419433593751	351.425506591797	
